<svg width="57" height="56" viewBox="0 0 57 56" fill="none" xmlns="http://www.w3.org/2000/svg">
<g clip-path="url(#clip0_1511_62)">
<path d="M18.0046 0H24.02V2.51533H20.52V5.03067H24.02V7.546H18.0046V0ZM25.2216 0H31.2393V2.18867H27.7393V2.625H31.2393V7.65567H25.2216V5.35967H28.7216V4.921H25.2216V0ZM32.4433 0H38.4563V2.18867H34.9563V2.625H38.4563V7.65567H32.4433V5.35967H35.9433V4.921H32.4433V0Z" fill="black"/>
<path fill-rule="evenodd" clip-rule="evenodd" d="M28.479 56L12.2763 51.5013L7.5 11.0063H49.5L44.726 51.4967L28.479 56ZM16.943 29.337L17.3887 34.3023H34.6017L34.0253 40.7423L28.486 42.2403H28.4813L22.9513 40.747L22.5967 36.7873H17.6103L18.3057 44.5853L28.479 47.4087L38.6687 44.5853L39.91 30.6693L40.0313 29.337L40.9273 19.2827H16.0493L16.502 24.2503H35.486L35.0333 29.337H16.943Z" fill="black"/>
</g>
<defs>
<clipPath id="clip0_1511_62">
<rect width="56" height="56" fill="white" transform="translate(0.5)"/>
</clipPath>
</defs>
</svg>
