<svg width="56" height="56" viewBox="0 0 56 56" fill="none" xmlns="http://www.w3.org/2000/svg">
<g clip-path="url(#clip0_1522_1285)">
<path d="M0 0H56V56H0V0Z" fill="black"/>
<path d="M9.98092 35.7777C9.58498 35.7777 9.24854 35.6458 8.97139 35.3819C8.69423 35.1113 8.55554 34.7898 8.55554 34.4177C8.55554 34.0388 8.69423 33.7142 8.97117 33.4434C9.24854 33.1728 9.58498 33.0374 9.98092 33.0374C10.3834 33.0374 10.7234 33.1728 11.0005 33.4434C11.2844 33.7142 11.4262 34.0388 11.4262 34.4177C11.4262 34.7898 11.2844 35.1111 11.0005 35.3819C10.7234 35.6458 10.3836 35.7779 9.98114 35.7779M25.8101 35.5547H23.2365L16.4555 24.8566C16.2862 24.5905 16.1436 24.3084 16.0298 24.0144H15.9703L15.9806 24.0811L15.99 24.1577L15.9987 24.2436L16.007 24.339L16.0178 24.5L16.0269 24.682L16.0346 24.8854L16.0407 25.1103L16.0451 25.3564L16.0473 25.5325L16.0495 26.0137V35.5543H13.7727V21H16.5148L23.0679 31.4438L23.2297 31.6995L23.3341 31.8675L23.4233 32.0152L23.4977 32.1427L23.5393 32.2166L23.5743 32.2814L23.6027 32.3372H23.6421L23.6346 32.2912L23.6206 32.1928L23.6075 32.0849L23.5959 31.9675C23.5941 31.9467 23.5923 31.9259 23.5907 31.9051L23.5806 31.7734L23.5719 31.6323L23.5642 31.4814L23.555 31.2377L23.5484 30.9726L23.5445 30.686L23.5432 30.3782V21H25.8099L25.8101 35.5547ZM36.8974 35.5547H28.9288V21H36.5807V23.0503H31.2848V27.1709H36.1651V29.211H31.2848V33.5145H36.8974V35.5547ZM48.2226 23.0506H44.1438V35.5547H41.7878V23.0506H37.7191V21H48.2221L48.2226 23.0506Z" fill="white"/>
</g>
<defs>
<clipPath id="clip0_1522_1285">
<rect width="56" height="56" fill="white"/>
</clipPath>
</defs>
</svg>
