<svg width="57" height="56" viewBox="0 0 57 56" fill="none" xmlns="http://www.w3.org/2000/svg">
<g clip-path="url(#clip0_1511_137)">
<path d="M43.375 0H13.625C6.37626 0 0.5 5.87626 0.5 13.125V42.875C0.5 50.1237 6.37626 56 13.625 56H43.375C50.6237 56 56.5 50.1237 56.5 42.875V13.125C56.5 5.87626 50.6237 0 43.375 0Z" fill="#242938"/>
<mask id="mask0_1511_137" style="mask-type:luminance" maskUnits="userSpaceOnUse" x="8" y="8" width="41" height="40">
<path d="M8.8125 8.3125H48.1875V47.6875H8.8125V8.3125Z" fill="white"/>
</mask>
<g mask="url(#mask0_1511_137)">
<path fill-rule="evenodd" clip-rule="evenodd" d="M45.0815 38.9834C42.94 38.9239 41.2786 39.1433 39.8862 39.7291C39.4852 39.8901 38.8419 39.8901 38.789 40.3948C39.0033 40.6065 39.0291 40.953 39.2171 41.2466C39.538 41.7793 40.101 42.4968 40.6094 42.8691L42.3231 44.0936C43.3674 44.7317 44.5456 45.1047 45.563 45.7434C46.1523 46.1162 46.7412 46.5953 47.3305 46.9949C47.6306 47.2078 47.8124 47.5545 48.1876 47.6868V47.6063C48.0003 47.3677 47.9463 47.0218 47.7597 46.7545L46.9553 45.9832C46.1794 44.9454 45.2147 44.0398 44.1704 43.2954C43.3134 42.7098 41.4396 41.9116 41.0913 40.9274L41.0386 40.8677C41.6268 40.8082 42.3231 40.6011 42.8859 40.4414C43.797 40.2027 44.6265 40.2552 45.563 40.0159L46.8492 39.6432V39.4045C46.3671 38.9257 46.0191 38.2867 45.5107 37.8348C44.1453 36.6638 42.6446 35.5191 41.0913 34.5612C40.2614 34.0292 39.1899 33.6824 38.3064 33.2309C37.9842 33.071 37.4493 32.9912 37.2621 32.7252C36.7789 32.1407 36.5118 31.3681 36.1637 30.6757L33.9681 26.0452C33.4862 25.0073 33.1909 23.9693 32.6027 23.0114C29.8441 18.487 26.8443 15.7463 22.2383 13.0578C21.2481 12.4989 20.0699 12.2585 18.8171 11.9662L16.809 11.8591C16.3798 11.6729 15.9517 11.1669 15.5767 10.9272C14.0503 9.96906 10.1137 7.89356 8.98799 10.629C8.26502 12.3587 10.0596 14.0617 10.6689 14.9404C11.125 15.5524 11.7132 16.2441 12.0354 16.9363C12.2154 17.3884 12.2756 17.8679 12.4635 18.347C12.8914 19.5177 13.2934 20.8223 13.8558 21.9139C14.156 22.4728 14.4712 23.0591 14.8461 23.5644C15.0605 23.8625 15.4356 23.9903 15.5155 24.4691C15.1403 25.0018 15.1145 25.7993 14.9001 26.4657C13.9357 29.473 14.3108 33.1988 15.6763 35.413C16.1055 36.078 17.1167 37.5423 18.489 36.9829C19.6941 36.5039 19.4252 34.9871 19.7732 33.6562C19.8542 33.3373 19.8004 33.1242 19.9605 32.9107V32.9704L21.0588 35.1791C21.889 36.4831 23.3356 37.8407 24.54 38.7461C25.1823 39.2251 25.6913 40.0507 26.4943 40.3429V40.2624H26.4416C26.2806 40.0238 26.0393 39.9164 25.8252 39.7302C25.3433 39.2514 24.8078 38.6656 24.4326 38.1336C23.3085 36.6434 22.3182 34.993 21.434 33.29C21.005 32.4651 20.6299 31.5601 20.2829 30.7352C20.1208 30.4156 20.1208 29.9359 19.8537 29.7773C19.4515 30.3618 18.8635 30.8689 18.5675 31.587C18.0585 32.7311 18.0057 34.1418 17.8185 35.6057C17.7104 35.6324 17.7583 35.6057 17.7104 35.6652C16.8545 35.453 16.5591 34.5736 16.2382 33.8292C15.435 31.9397 15.3005 28.9058 15.9967 26.7233C16.184 26.1644 16.9883 24.4079 16.6672 23.8757C16.5053 23.3699 15.9709 23.0777 15.6756 22.678C15.3276 22.1723 14.9537 21.5339 14.7125 20.975C14.0702 19.4838 13.7491 17.8344 13.0521 16.3441C12.7299 15.652 12.1682 14.9332 11.7125 14.2951C11.2035 13.5762 10.6424 13.0703 10.2403 12.2191C10.1065 11.921 9.91921 11.4474 10.1334 11.1276C10.1863 10.9147 10.2941 10.8294 10.5074 10.7817C10.8552 10.4833 11.8471 10.8616 12.1951 11.0202C13.1854 11.4198 14.0155 11.7921 14.8457 12.3504C15.2208 12.6164 15.6229 13.1223 16.1048 13.256H16.6679C17.5249 13.4419 18.4883 13.3155 19.2907 13.5542C20.7104 14.0074 21.9953 14.672 23.1477 15.3912C26.6553 17.6002 29.5483 20.7405 31.5024 24.4936C31.8235 25.1057 31.9574 25.6646 32.2527 26.3033C32.8158 27.608 33.5121 28.9382 34.0731 30.2163C34.6362 31.4672 35.1715 32.7455 35.9747 33.7833C36.3768 34.3422 37.9829 34.6344 38.7056 34.9273C39.2416 35.166 40.0711 35.3808 40.5543 35.6731C41.4641 36.232 42.3747 36.8707 43.2311 37.4828C43.659 37.8013 44.9988 38.4669 45.0785 38.9978L45.0815 38.9834ZM17.7721 15.8565C17.4022 15.8532 17.0335 15.898 16.6751 15.9895V16.0492H16.7278C16.9422 16.4751 17.3173 16.768 17.5849 17.1408L18.2013 18.4183L18.2542 18.3588C18.6292 18.0928 18.8171 17.6669 18.8171 17.0288C18.6563 16.8426 18.6298 16.6558 18.496 16.4697C18.3352 16.2037 17.9871 16.07 17.7721 15.8578V15.8565Z" fill="white"/>
</g>
</g>
<defs>
<clipPath id="clip0_1511_137">
<rect width="56" height="56" fill="white" transform="translate(0.5)"/>
</clipPath>
</defs>
</svg>
