<svg width="56" height="56" viewBox="0 0 56 56" fill="none" xmlns="http://www.w3.org/2000/svg">
<path d="M12.6537 7.08868C9.65767 7.08868 7.44333 9.71135 7.54367 12.5534C7.637 15.2857 7.51333 18.8254 6.622 21.7093C5.72833 24.6027 4.21867 26.4367 1.75 26.6723V29.3277C4.21867 29.5634 5.72833 31.3973 6.622 34.2907C7.51333 37.177 7.637 40.7144 7.54133 43.4467C7.44333 46.2887 9.65767 48.9113 12.656 48.9113H43.3487C46.3447 48.9113 48.5613 46.2887 48.4633 43.4467C48.3677 40.7144 48.4913 37.177 49.3803 34.2907C50.2763 31.3973 51.7837 29.5634 54.25 29.3277V26.6723C51.7813 26.4367 50.2763 24.6027 49.3803 21.7093C48.4913 18.8254 48.3677 15.2857 48.4633 12.5534C48.5613 9.71135 46.3447 7.08868 43.3487 7.08868H12.6537ZM37.3427 32.8323C37.3427 36.7477 34.4237 39.123 29.5773 39.123H21.3267C21.2097 39.1233 21.0939 39.1006 20.9857 39.056C20.8776 39.0115 20.7793 38.946 20.6965 38.8635C20.6137 38.7809 20.548 38.6828 20.5032 38.5748C20.4584 38.4668 20.4353 38.351 20.4353 38.234V17.766C20.4356 17.6493 20.4589 17.5337 20.5039 17.426C20.5489 17.3182 20.6146 17.2204 20.6974 17.1381C20.7801 17.0557 20.8783 16.9905 20.9863 16.9461C21.0943 16.9017 21.2099 16.879 21.3267 16.8794H29.5283C33.5697 16.8794 36.2227 19.0657 36.2227 22.428C36.2227 24.7847 34.4377 26.8987 32.165 27.2673V27.391C35.259 27.7294 37.3427 29.8737 37.3427 32.8323ZM28.6767 19.698H23.9727V26.3433H27.9347C30.9983 26.3433 32.6853 25.109 32.6853 22.904C32.6853 20.839 31.234 19.698 28.6767 19.698ZM23.9727 28.9777V36.302H28.8493C32.039 36.302 33.726 35.021 33.726 32.6153C33.726 30.212 31.9923 28.9777 28.644 28.9777H23.9727Z" fill="black"/>
</svg>
