<svg width="56" height="56" viewBox="0 0 56 56" fill="none" xmlns="http://www.w3.org/2000/svg">
<path d="M48.72 7.23099C47.0097 5.52066 44.9517 4.66666 42.5437 4.66666H13.4074C10.9994 4.66666 8.94135 5.52066 7.23102 7.23099C5.52069 8.94132 4.66669 10.9993 4.66669 13.4073V42.5437C4.66669 44.9517 5.52069 47.0097 7.23102 48.72C8.94135 50.4303 10.9994 51.2843 13.4074 51.2843H20.2067C20.65 51.2843 20.9837 51.268 21.2077 51.2377C21.4683 51.1854 21.7035 51.0464 21.875 50.8433C22.0967 50.61 22.2087 50.2717 22.2087 49.8283L22.1924 47.7633C22.183 46.4473 22.1784 45.4067 22.1784 44.6367L21.4784 44.758C21.035 44.8397 20.475 44.8747 19.796 44.8653C19.0883 44.8523 18.3828 44.7812 17.6867 44.653C16.9456 44.5162 16.248 44.2042 15.652 43.743C15.0278 43.2708 14.5623 42.6197 14.3174 41.8763L14.014 41.1763C13.7584 40.6241 13.4372 40.1047 13.0574 39.6293C12.6234 39.0623 12.1824 38.6797 11.7367 38.4767L11.5267 38.325C11.3803 38.2201 11.2471 38.0979 11.13 37.961C11.0182 37.8339 10.9262 37.6908 10.857 37.5363C10.7964 37.394 10.8477 37.2773 11.0087 37.1863C11.172 37.093 11.4637 37.0487 11.8907 37.0487L12.4974 37.142C12.901 37.2213 13.4027 37.464 13.9977 37.8677C14.5998 38.2782 15.1028 38.8178 15.47 39.4473C15.9367 40.2757 16.4967 40.908 17.1547 41.3443C17.8127 41.7783 18.4754 41.9977 19.1427 41.9977C19.81 41.9977 20.3864 41.9463 20.874 41.846C21.3456 41.7485 21.8039 41.5949 22.239 41.3887C22.421 40.0353 22.9157 38.99 23.7254 38.262C22.6762 38.1591 21.6365 37.9766 20.615 37.716C19.6182 37.4422 18.6595 37.0447 17.7614 36.533C16.8216 36.0214 15.9915 35.33 15.3184 34.4983C14.672 33.6887 14.14 32.627 13.7247 31.3133C13.3117 29.9973 13.104 28.4783 13.104 26.7587C13.104 24.311 13.902 22.2273 15.5004 20.5053C14.7537 18.6667 14.8237 16.6017 15.7127 14.3173C16.3007 14.133 17.171 14.2707 18.3237 14.7257C19.4764 15.1807 20.321 15.5703 20.8577 15.8923C21.3944 16.219 21.8237 16.492 22.148 16.7137C24.045 16.1857 26.0053 15.9204 27.9744 15.925C29.9787 15.925 31.92 16.1887 33.803 16.7137L34.9557 15.9857C35.8423 15.4533 36.7775 15.0064 37.7487 14.651C38.822 14.245 39.6387 14.1353 40.208 14.3173C41.118 16.604 41.1974 18.6667 40.4484 20.5077C42.0467 22.2273 42.847 24.311 42.847 26.761C42.847 28.4807 42.6394 30.0043 42.224 31.3273C41.811 32.6527 41.2744 33.7143 40.6164 34.5147C39.9313 35.3357 39.0978 36.0204 38.1594 36.533C37.1794 37.079 36.2274 37.4733 35.3057 37.716C34.2843 37.9775 33.2445 38.1608 32.1954 38.2643C33.2454 39.1743 33.7727 40.6093 33.7727 42.5717V49.8283C33.7727 50.1713 33.8217 50.449 33.9244 50.6613C33.9715 50.7636 34.0388 50.8554 34.1222 50.9311C34.2056 51.0069 34.3033 51.0651 34.4097 51.1023C34.6337 51.1817 34.8297 51.233 35.0024 51.2517C35.175 51.275 35.4224 51.282 35.7444 51.282H42.5437C44.9517 51.282 47.0097 50.428 48.72 48.7177C50.428 47.0097 51.2844 44.9493 51.2844 42.5413V13.4073C51.2844 10.9993 50.4304 8.94132 48.72 7.23099Z" fill="black"/>
</svg>
