<svg width="57" height="56" viewBox="0 0 57 56" fill="none" xmlns="http://www.w3.org/2000/svg">
<g clip-path="url(#clip0_1511_99)">
<path d="M27 28C27 25.5246 28.475 23.1506 31.1005 21.4003C33.726 19.65 37.287 18.6666 41 18.6666C44.713 18.6666 48.274 19.65 50.8995 21.4003C53.525 23.1506 55 25.5246 55 28C55 30.4753 53.525 32.8493 50.8995 34.5996C48.274 36.35 44.713 37.3333 41 37.3333C37.287 37.3333 33.726 36.35 31.1005 34.5996C28.475 32.8493 27 30.4753 27 28Z" fill="black"/>
<path d="M1 46.6666C1 44.4043 2.34841 42.1693 4.87785 40.483C7.40757 38.7965 10.8679 37.8333 14.5 37.8333H28V46.6666C28 48.929 26.6516 51.164 24.1221 52.8503C21.5924 54.5368 18.1321 55.5 14.5 55.5C10.8679 55.5 7.40757 54.5368 4.87785 52.8503C2.34841 51.164 1 48.929 1 46.6666Z" fill="black" stroke="black"/>
<path d="M39.5 18.1667H26V0.5H39.5C43.1321 0.5 46.5924 1.46322 49.1221 3.1497C51.6516 4.83599 53 7.07099 53 9.33333C53 11.5957 51.6516 13.8307 49.1221 15.517C46.5924 17.2034 43.1321 18.1667 39.5 18.1667Z" stroke="black"/>
<path d="M0.5 9.33333C0.5 11.8087 1.975 14.1827 4.6005 15.933C7.22601 17.6833 10.787 18.6667 14.5 18.6667H28.5V0H14.5C10.787 0 7.22601 0.98333 4.6005 2.73367C1.975 4.48401 0.5 6.85798 0.5 9.33333Z" fill="black"/>
<path d="M4.87785 34.1837C2.34841 32.4974 1 30.2624 1 28C1 25.7377 2.34841 23.5027 4.87785 21.8164C7.40757 20.1299 10.8679 19.1667 14.5 19.1667H28V36.8334H14.5C10.8679 36.8334 7.40757 35.8701 4.87785 34.1837Z" stroke="black"/>
</g>
<defs>
<clipPath id="clip0_1511_99">
<rect width="56" height="56" fill="white" transform="translate(0.5)"/>
</clipPath>
</defs>
</svg>
