<svg width="57" height="56" viewBox="0 0 57 56" fill="none" xmlns="http://www.w3.org/2000/svg">
<g clip-path="url(#clip0_1522_1292)">
<path d="M54.0707 12.3904L30.9232 0.513187C29.5897 -0.171063 27.4075 -0.171063 26.0741 0.513187L2.92697 12.3904C1.59342 13.0747 0.502441 14.7543 0.502441 16.1228V39.8773C0.606186 41.4711 1.52217 42.791 2.92684 43.6096L26.0743 55.4867C27.4076 56.1711 29.5899 56.1711 30.9233 55.4867L54.0707 43.6096C55.578 42.7186 56.436 41.3774 56.4952 39.8773V16.1228C56.441 14.6828 55.4709 13.2305 54.0708 12.3904M9.83454 28.0001C9.72489 11.8028 34.1352 4.65073 44.6618 19.701L36.5844 23.855C31.7083 16.6873 19.6012 19.2503 19.1666 28.0001C19.2971 36.0642 31.1969 39.8102 36.5849 32.1445L44.6624 36.2986C35.3853 50.6116 10.3022 45.462 9.83454 28.0001ZM47.1631 28.9215H45.0892V30.7647H43.0156V28.9215H40.9417V27.0785H43.0156V25.2355H45.0893V27.0785H47.1631V28.9215ZM54.9399 28.9215H52.8658V30.7647H50.7922V28.9215H48.7185V27.0785H50.7924V25.2355H52.866V27.0785H54.9399V28.9215Z" fill="black"/>
</g>
<defs>
<clipPath id="clip0_1522_1292">
<rect width="56" height="56" fill="white" transform="translate(0.5)"/>
</clipPath>
</defs>
</svg>
