<svg width="56" height="56" viewBox="0 0 56 56" fill="none" xmlns="http://www.w3.org/2000/svg">
<path d="M37.3333 29.8667V26.1334H41.0666V29.8667H37.3333Z" fill="black"/>
<path fill-rule="evenodd" clip-rule="evenodd" d="M28 1.57172L52.2667 15.7285V40.2714L28 54.432L3.73334 40.2714V15.7285L28 1.57172ZM23.6395 14.9333C20.3403 14.9333 17.1763 16.2439 14.8434 18.5768C12.5106 20.9096 11.2 24.0736 11.2 27.3728V28.6272C11.2005 30.7469 11.7427 32.8314 12.7751 34.6827C13.8075 36.5341 15.2958 38.0909 17.0989 39.2054C18.902 40.32 20.96 40.9553 23.0776 41.051C25.1952 41.1468 27.3021 40.6998 29.1984 39.7525L30.7029 39.0059L29.0304 35.6645L27.5296 36.4112C26.203 37.0749 24.7288 37.3885 23.2469 37.3222C21.765 37.256 20.3246 36.812 19.0626 36.0325C17.8006 35.2529 16.7587 34.1638 16.036 32.8684C15.3133 31.5729 14.9337 30.1143 14.9333 28.6309V27.3765C14.9335 25.8929 15.3128 24.4339 16.0352 23.1381C16.7577 21.8422 17.7993 20.7525 19.0612 19.9723C20.3231 19.1921 21.7635 18.7474 23.2456 18.6803C24.7277 18.6131 26.2023 18.9259 27.5296 19.5888L29.0304 20.3392L30.7029 17.0016L29.1984 16.2512C27.4716 15.386 25.5709 14.9348 23.6395 14.9333ZM33.6 18.6666V22.4H29.8667V26.1333H33.6V29.8666H29.8667V33.6H33.6V37.3333H37.3333V33.6H41.0667V37.3333H44.8V33.6H48.5333V29.8666H44.8V26.1333H48.5333V22.4H44.8V18.6666H41.0667V22.4H37.3333V18.6666H33.6Z" fill="black"/>
</svg>
