<svg width="56" height="56" viewBox="0 0 56 56" fill="none" xmlns="http://www.w3.org/2000/svg">
<g clip-path="url(#clip0_1511_497)">
<mask id="mask0_1511_497" style="mask-type:luminance" maskUnits="userSpaceOnUse" x="0" y="0" width="56" height="56">
<path d="M0 0H56V56H0V0Z" fill="white"/>
</mask>
<g mask="url(#mask0_1511_497)">
<path d="M11.8533 0H14.3779V2.49433H16.6879V0H19.2126V7.55067H16.6879V5.02367H14.3779V7.55067H11.8556L11.8533 0ZM22.5306 2.50367H20.3093V0H27.2789V2.50367H25.0553V7.55067H22.5306V2.50367ZM28.3849 0H31.0169L32.6363 2.653L34.2533 0H36.8853V7.55067H34.3723V3.808L32.6363 6.49367H32.5919L30.8536 3.81033V7.55067H28.3849V0ZM38.1406 0H40.6676V5.05633H44.2143V7.553H38.1406V0Z" fill="black"/>
<path fill-rule="evenodd" clip-rule="evenodd" d="M11.774 51.5013L7 11.0063H49L44.2237 51.4967L27.9767 56L11.774 51.5013ZM21.427 29.3347L20.9743 24.248H39.9793L40.4227 19.2827H15.5493L16.8887 34.3023H34.1017L33.5253 40.7423L27.986 42.2403H27.9813L22.4513 40.747L22.0967 36.7873H17.108L17.8033 44.5853L27.9767 47.4087L38.1663 44.5853L39.4077 30.6693L39.529 29.337L21.427 29.3347Z" fill="black"/>
</g>
</g>
<defs>
<clipPath id="clip0_1511_497">
<rect width="56" height="56" fill="white"/>
</clipPath>
</defs>
</svg>
