<svg width="32" height="32" viewBox="0 0 32 32" fill="none" xmlns="http://www.w3.org/2000/svg">
<rect width="32" height="32" fill="#2374FB"/>
<path d="M31.0307 10.0934C30.7739 10.0934 30.5277 10.1954 30.3462 10.3769C30.1646 10.5584 30.0627 10.8047 30.0627 11.0614C30.0627 11.3181 30.1646 11.5643 30.3462 11.7459C30.5277 11.9274 30.7739 12.0294 31.0307 12.0294C31.2874 12.0294 31.5336 11.9274 31.7151 11.7459C31.8967 11.5643 31.9987 11.3181 31.9987 11.0614C31.9987 10.8047 31.8967 10.5584 31.7151 10.3769C31.5336 10.1954 31.2874 10.0934 31.0307 10.0934ZM31.0307 10.2374C31.484 10.2374 31.8573 10.6107 31.8573 11.0627C31.8571 11.2258 31.8085 11.3852 31.7177 11.5207C31.6269 11.6563 31.498 11.7618 31.3472 11.8241C31.1965 11.8864 31.0306 11.9027 30.8707 11.8708C30.7107 11.8389 30.5637 11.7603 30.4484 11.645C30.3331 11.5296 30.2545 11.3827 30.2226 11.2227C30.1907 11.0627 30.2069 10.8969 30.2692 10.7462C30.3315 10.5954 30.4371 10.4665 30.5726 10.3757C30.7082 10.2849 30.8675 10.2376 31.0307 10.2374ZM10.8493 10.3081C9.64933 10.3081 8.78267 11.0974 8.664 12.496H7.73733V13.1921H8.65067C8.65467 15.4134 8.648 17.6374 8.648 19.856H9.68533C9.68133 17.6347 9.68267 15.4134 9.68267 13.1921H12.0133C11.152 13.8907 10.5907 15.0227 10.5907 16.304C10.5907 18.428 12.1333 20.1494 14.0333 20.1494C15.9347 20.1494 17.476 18.428 17.476 16.304C17.476 16.0507 17.4533 15.8027 17.412 15.5641C17.7533 16.1147 18.4093 16.3814 19.2893 16.7614C20.3267 17.2014 20.9067 17.584 20.9067 18.2387C20.9067 19.0227 20.1653 19.432 19.3307 19.4254C18.516 19.4254 17.88 19.0934 17.1707 18.452V19.684C17.604 19.9627 18.2733 20.1214 18.9973 20.1214C19.9093 20.1174 21.7867 19.788 21.7867 17.8867C21.78 16.7454 20.8333 16.2547 19.8053 15.808C18.5533 15.188 18.076 15.0574 18.088 14.348C18.088 13.4014 18.912 13.1187 19.5547 13.1187C19.8347 13.1187 20.0747 13.1587 20.3 13.2334C20.7213 13.3934 20.86 13.7067 21.0107 14.0481C21.7147 15.6961 22.3893 17.356 23.076 19.012C22.7754 19.6991 22.4566 20.378 22.12 21.048L22.1147 21.0614L21.9013 21.4574L21.6613 21.9054H22.6773C23.12 20.9267 25.0013 16.3467 25.4067 15.3601C25.6733 16.0707 26.32 16.356 27.3133 16.7854C28.3507 17.224 28.932 17.6067 28.932 18.2614C28.932 19.0467 28.1907 19.4534 27.3573 19.4467C26.5107 19.4467 25.856 19.0881 25.1147 18.3974L25.048 18.3427V19.5974C25.4613 19.944 26.208 20.144 27.024 20.144C27.936 20.1414 29.812 19.812 29.812 17.9107C29.8067 16.7694 28.8587 16.2761 27.8307 15.8307C26.58 15.2094 26.1507 15.0787 26.164 14.3681C26.164 13.4227 26.936 13.1387 27.5773 13.1387C28.3093 13.1387 28.772 13.4107 29.4173 13.8787V12.7774C28.9198 12.5972 28.393 12.5113 27.864 12.524C26.6773 12.5227 25.6027 12.9561 25.3307 13.9601L23.8573 17.6054L23.7027 18.0641L23.568 17.6054C22.8987 15.9934 22.2427 14.3734 21.5867 12.7654C21.1653 12.6534 20.4787 12.4961 19.9947 12.5041H19.8413C18.468 12.5014 17.1427 13.0814 17.1427 14.4467C17.1427 14.5267 17.1467 14.6001 17.1507 14.6734C16.6013 13.3654 15.4133 12.4601 14.0333 12.4601C13.8695 12.4592 13.7059 12.4713 13.544 12.496H9.672C9.512 11.5187 9.96933 10.9627 10.656 10.9627C11.5187 10.9627 11.888 11.2187 12.2627 11.5627H12.3C12.304 11.2361 12.3027 10.8547 12.3027 10.504C12.056 10.3894 11.628 10.3081 10.8493 10.3081ZM0 10.3414V19.8574H1.14667V10.3414H0ZM30.6667 10.5267V11.5467H30.852V11.1361H31.0707L31.2293 11.5467H31.4347L31.248 11.1067C31.3133 11.0734 31.424 11.0374 31.424 10.8574C31.424 10.56 31.2013 10.5267 31.008 10.5267H30.6667ZM30.852 10.7027H31.0573C31.168 10.7027 31.2293 10.748 31.2293 10.8387C31.2293 10.9294 31.16 10.9721 31.0733 10.9721H30.852V10.7027ZM5.56267 12.4747C4.30267 12.4747 3.772 12.9214 3.352 13.3721C3.33219 13.3984 3.31646 13.4277 3.30533 13.4587H3.29333V13.4014L3.28 12.5707H2.27467V19.8574H3.308V14.528C3.33867 13.8747 4.26 13.2294 4.97733 13.2294C5.84133 13.2294 6.548 13.8107 6.548 14.6147V19.8574H7.58133L7.57867 14.14C7.548 13.496 6.76667 12.4734 5.56133 12.4734M13.9387 13.2147C15.2373 13.1921 16.316 14.5761 16.3453 16.3054C16.3747 18.0347 15.3453 19.4547 14.0453 19.4787C12.7467 19.5 11.6693 18.1187 11.64 16.3894C11.6093 14.66 12.64 13.2374 13.9387 13.2147Z" fill="#020202"/>
</svg>
